<?xml version="1.0" encoding="UTF-8" standalone="no"?>
<!-- Created with Inkscape (http://www.inkscape.org/) -->

<svg
   width="297mm"
   height="210mm"
   viewBox="0 0 297 210"
   version="1.1"
   id="svg5"
   inkscape:version="1.1.1 (3bf5ae0d25, 2021-09-20)"
   sodipodi:docname="stealio-logo.svg"
   inkscape:export-filename="C:\Users\aszabo\Desktop\Stealio\stealio-logo-grey.png"
   inkscape:export-xdpi="96"
   inkscape:export-ydpi="96"
   xmlns:inkscape="http://www.inkscape.org/namespaces/inkscape"
   xmlns:sodipodi="http://sodipodi.sourceforge.net/DTD/sodipodi-0.dtd"
   xmlns="http://www.w3.org/2000/svg"
   xmlns:svg="http://www.w3.org/2000/svg">
  <sodipodi:namedview
     id="namedview7"
     pagecolor="#ffffff"
     bordercolor="#666666"
     borderopacity="1.0"
     inkscape:pageshadow="2"
     inkscape:pageopacity="0.0"
     inkscape:pagecheckerboard="0"
     inkscape:document-units="mm"
     showgrid="true"
     inkscape:zoom="1.0482005"
     inkscape:cx="663.5181"
     inkscape:cy="352.5089"
     inkscape:window-width="2560"
     inkscape:window-height="1377"
     inkscape:window-x="-8"
     inkscape:window-y="-8"
     inkscape:window-maximized="1"
     inkscape:current-layer="layer1">
    <inkscape:grid
       type="xygrid"
       id="grid6097" />
  </sodipodi:namedview>
  <defs
     id="defs2">
    <rect
       x="280"
       y="540"
       width="610"
       height="180"
       id="rect14692" />
    <rect
       x="284.29676"
       y="540.92705"
       width="606.75415"
       height="186.98713"
       id="rect5631" />
    <linearGradient
       id="linearGradient2057"
       inkscape:swatch="solid">
      <stop
         style="stop-color:#000000;stop-opacity:1;"
         offset="0"
         id="stop2055" />
    </linearGradient>
  </defs>
  <g
     inkscape:label="Vrstva 1"
     inkscape:groupmode="layer"
     id="layer1">
    <ellipse
       style="fill:#198754;fill-opacity:1;stroke-width:0.398245"
       id="path848"
       cx="117.22736"
       cy="111.76154"
       rx="31.549479"
       ry="26.089546" />
    <ellipse
       style="fill:#198754;fill-opacity:1;stroke-width:0.347258"
       id="path850"
       cx="230.6788"
       cy="25.905931"
       rx="36.957531"
       ry="32.201321"
       transform="rotate(20.608397)" />
    <path
       style="fill:#198754;fill-opacity:1;fill-rule:nonzero;stroke:none;stroke-width:0;stroke-miterlimit:4;stroke-dasharray:none;stroke-opacity:1"
       d="M 117.73958,111.8368 V 86.09025 h 49.60937 49.60938 v 25.74655 25.74653 H 166.6875 117.73958 Z"
       id="path1281"
       sodipodi:nodetypes="ccccccccc" />
    <text
       xml:space="preserve"
       transform="scale(0.26458333)"
       id="text5629"
       style="fill:black;fill-opacity:1;line-height:1.25;stroke:none;font-family:sans-serif;font-style:normal;font-weight:normal;font-size:40px;white-space:pre;shape-inside:url(#rect5631)" />
    <text
       xml:space="preserve"
       transform="matrix(1.3046889,0,0,1.4014381,-272.81761,-625.29868)"
       id="text14690"
       style="font-style:normal;font-weight:normal;font-size:40px;line-height:1.25;font-family:sans-serif;white-space:pre;shape-inside:url(#rect14692);fill:#4d4d4d;fill-opacity:1;stroke:none"><tspan
         x="280"
         y="576.49321"
         id="tspan9302"><tspan
           style="font-family:Calibri;-inkscape-font-specification:Calibri"
           id="tspan9300">Stealio</tspan></tspan></text>
    <ellipse
       style="fill:#198754;fill-opacity:1;stroke-width:0.280013"
       id="path976"
       cx="171.89903"
       cy="78.269936"
       rx="34.395832"
       ry="32.495392" />
    <ellipse
       style="fill:#198754;fill-opacity:1;stroke-width:0.319078"
       id="path848-0"
       cx="132.65184"
       cy="85.199432"
       rx="24.231569"
       ry="21.805891" />
    <path
       style="fill:#4d4d4d;stroke:#000000;stroke-width:0"
       d="m 526.5184,242.64807 c -7.11078,-1.90357 -16.28054,-3.16443 -23.03276,-3.16705 l -2.96367,-0.001 0.11927,-64.00183 c 0.13057,-70.06634 0.0192,-66.06671 2.11508,-75.993073 4.65556,-22.049899 17.74844,-41.50814 37.42255,-55.61625 19.77184,-14.178189 44.59539,-22.736901 74.54233,-25.700847 5.79634,-0.573683 24.25848,-0.585687 30.3566,-0.01974 40.60225,3.768177 73.76388,19.180367 94.12524,43.745617 9.10764,10.988048 15.84036,25.571336 18.51802,40.110643 1.54805,8.40565 1.57276,9.58589 1.46479,69.95747 l -0.10215,57.11271 -1.42825,-2.02528 c -9.77596,-13.86238 -24.05645,-26.8193 -39.55316,-35.88721 -3.80116,-2.22425 -12.46315,-6.54473 -15.41997,-7.69126 l -2.0959,-0.81271 -0.11821,-35.08501 c -0.10664,-31.64925 -0.1745,-35.31623 -0.69296,-37.44608 -3.13361,-12.872766 -9.9382,-22.471041 -21.29001,-30.030817 -20.70638,-13.789476 -52.96922,-17.176723 -79.61694,-8.358916 -16.05768,5.313535 -28.31622,14.890554 -34.45962,26.921678 -1.94957,3.817995 -3.15508,7.219175 -4.23022,11.934975 -0.73866,3.23988 -0.73957,3.29289 -0.85435,49.93664 l -0.1149,46.69331 -5.13033,5.2582 c -8.81989,9.03972 -16.61447,19.74372 -21.19469,29.10588 -0.69696,1.4246 -1.30768,2.26028 -1.63172,2.23277 -0.28483,-0.0242 -2.41516,-0.55188 -4.73407,-1.17266 z"
       id="path3584"
       transform="scale(0.26458333)" />
    <g
       id="g7467"
       transform="translate(-1.3229133,2.6458367)">
      <circle
         style="fill:#4d4d4d;stroke:none;stroke-width:0"
         id="path5371"
         cx="167.51443"
         cy="87.077606"
         r="11.90625" />
      <path
         style="fill:#4d4d4d;stroke:none;stroke-width:0"
         d="m 161.81449,113.70041 c 0,-0.0387 0.56223,-3.72177 1.2494,-8.18453 0.68717,-4.46277 1.2494,-8.122924 1.2494,-8.13369 0,-0.01077 0.13052,0.01807 0.29004,0.0641 1.31848,0.380365 3.65843,0.485208 5.11816,0.22933 0.44671,-0.07831 0.86934,-0.164301 0.93919,-0.191101 0.10391,-0.03988 0.33552,1.309497 1.2748,7.427161 0.6313,4.11174 1.19705,7.78712 1.25721,8.16752 l 0.10939,0.69163 h -5.74379 c -3.15909,0 -5.7438,-0.0317 -5.7438,-0.0704 z"
         id="path7186" />
    </g>
  </g>
</svg>
