<?xml version="1.0" encoding="UTF-8" standalone="no"?>
<!-- Created with Inkscape (http://www.inkscape.org/) -->

<svg
   width="297mm"
   height="210mm"
   viewBox="0 0 297 210"
   version="1.1"
   id="svg5"
   inkscape:version="1.1.1 (3bf5ae0d25, 2021-09-20)"
   sodipodi:docname="stealio_logo_horizontal_white.svg"
   inkscape:export-filename="C:\Users\aszabo\Desktop\stealio_logo_horizontal_white.png"
   inkscape:export-xdpi="96"
   inkscape:export-ydpi="96"
   xmlns:inkscape="http://www.inkscape.org/namespaces/inkscape"
   xmlns:sodipodi="http://sodipodi.sourceforge.net/DTD/sodipodi-0.dtd"
   xmlns="http://www.w3.org/2000/svg"
   xmlns:svg="http://www.w3.org/2000/svg">
  <sodipodi:namedview
     id="namedview7"
     pagecolor="#ffffff"
     bordercolor="#666666"
     borderopacity="1.0"
     inkscape:pageshadow="2"
     inkscape:pageopacity="0.0"
     inkscape:pagecheckerboard="0"
     inkscape:document-units="mm"
     showgrid="true"
     inkscape:zoom="1.0482005"
     inkscape:cx="536.63397"
     inkscape:cy="314.34826"
     inkscape:window-width="2560"
     inkscape:window-height="1377"
     inkscape:window-x="-8"
     inkscape:window-y="-8"
     inkscape:window-maximized="1"
     inkscape:current-layer="layer1">
    <inkscape:grid
       type="xygrid"
       id="grid6097" />
  </sodipodi:namedview>
  <defs
     id="defs2">
    <rect
       x="280"
       y="540"
       width="610"
       height="180"
       id="rect14692" />
    <rect
       x="284.29676"
       y="540.92705"
       width="606.75415"
       height="186.98713"
       id="rect5631" />
    <linearGradient
       id="linearGradient2057"
       inkscape:swatch="solid">
      <stop
         style="stop-color:#000000;stop-opacity:1;"
         offset="0"
         id="stop2055" />
    </linearGradient>
  </defs>
  <g
     inkscape:label="Vrstva 1"
     inkscape:groupmode="layer"
     id="layer1">
    <ellipse
       style="fill:#ffffff;fill-opacity:1;stroke-width:0.233169"
       id="path848"
       cx="19.207851"
       cy="136.96614"
       rx="18.19663"
       ry="15.506384" />
    <ellipse
       style="fill:#ffffff;fill-opacity:1;stroke-width:0.203336"
       id="path850"
       cx="112.26229"
       cy="98.622459"
       rx="21.397404"
       ry="19.069683"
       transform="matrix(0.9324385,0.36132871,-0.34280374,0.93940704,0,0)" />
    <path
       style="fill:#ffffff;fill-opacity:1;fill-rule:nonzero;stroke:none;stroke-width:0;stroke-miterlimit:4;stroke-dasharray:none;stroke-opacity:1"
       d="m 19.503279,137.01086 v -15.30253 h 28.612939 28.612949 v 15.30253 15.30251 H 47.734717 19.503279 Z"
       id="path1281"
       sodipodi:nodetypes="ccccccccc" />
    <text
       xml:space="preserve"
       transform="scale(0.26458333)"
       id="text5629"
       style="fill:black;fill-opacity:1;line-height:1.25;stroke:none;font-family:sans-serif;font-style:normal;font-weight:normal;font-size:40px;white-space:pre;shape-inside:url(#rect5631)" />
    <text
       xml:space="preserve"
       transform="matrix(1.8686696,0,0,2.2281442,-429.61525,-1134.7142)"
       id="text14690"
       style="font-style:normal;font-weight:normal;font-size:40px;line-height:1.25;font-family:sans-serif;white-space:pre;shape-inside:url(#rect14692);fill:#ffffff;fill-opacity:1;stroke:none"><tspan
         x="280"
         y="576.49321"
         id="tspan932"><tspan
           style="font-family:Calibri;-inkscape-font-specification:Calibri"
           id="tspan930">Stealio</tspan></tspan></text>
    <ellipse
       style="fill:#ffffff;fill-opacity:1;stroke-width:0.163945"
       id="path976"
       cx="50.740543"
       cy="117.06032"
       rx="19.838306"
       ry="19.313715" />
    <ellipse
       style="fill:#ffffff;fill-opacity:1;stroke-width:0.186817"
       id="path848-0"
       cx="28.104147"
       cy="121.17886"
       rx="13.975916"
       ry="12.960383" />
    <path
       style="fill:#4d4d4d;stroke:#000000;stroke-width:0"
       d="m 31.943179,108.69819 c -1.085122,-0.29935 -2.484448,-0.49763 -3.514852,-0.49804 l -0.452264,-1.6e-4 0.0182,-10.064648 c 0.01993,-11.018335 0.0029,-10.38937 0.322765,-11.950347 0.710451,-3.467473 2.708455,-6.527394 5.710771,-8.745975 3.017228,-2.229602 6.805361,-3.575509 11.375334,-4.041605 0.884536,-0.09022 3.701902,-0.0921 4.632489,-0.0031 6.195999,0.592567 11.256539,3.016222 14.363732,6.87925 1.389847,1.727933 2.417274,4.021238 2.825894,6.307628 0.236237,1.321836 0.240004,1.507436 0.223531,11.001214 l -0.01557,8.981273 -0.217954,-0.31848 c -1.491837,-2.17993 -3.671072,-4.21748 -6.035906,-5.64347 -0.580065,-0.34977 -1.901906,-1.029195 -2.353126,-1.209494 l -0.319839,-0.127803 -0.01805,-5.517319 c -0.01627,-4.977026 -0.02664,-5.553679 -0.105749,-5.888611 -0.478193,-2.024317 -1.51659,-3.533701 -3.248903,-4.722519 -3.159843,-2.168473 -8.083228,-2.701137 -12.149732,-1.314485 -2.450441,0.835582 -4.321123,2.341623 -5.25862,4.233586 -0.297509,0.600402 -0.481473,1.135257 -0.645542,1.876844 -0.112721,0.50949 -0.11286,0.517825 -0.130376,7.852823 l -0.01753,7.342798 -0.7829,0.82688 c -1.345935,1.42155 -2.535407,3.1048 -3.23436,4.57706 -0.106357,0.22402 -0.199554,0.35544 -0.249004,0.35111 -0.04346,-0.004 -0.36856,-0.0868 -0.72243,-0.18441 z"
       id="path3584" />
    <g
       id="g7467"
       transform="matrix(0.57676482,0,0,0.5943524,-49.167778,72.112949)">
      <circle
         style="fill:#4d4d4d;stroke:none;stroke-width:0"
         id="path5371"
         cx="167.51443"
         cy="87.077606"
         r="11.90625" />
      <path
         style="fill:#4d4d4d;stroke:none;stroke-width:0"
         d="m 161.81449,113.70041 c 0,-0.0387 0.56223,-3.72177 1.2494,-8.18453 0.68717,-4.46277 1.2494,-8.122924 1.2494,-8.13369 0,-0.01077 0.13052,0.01807 0.29004,0.0641 1.31848,0.380365 3.65843,0.485208 5.11816,0.22933 0.44671,-0.07831 0.86934,-0.164301 0.93919,-0.191101 0.10391,-0.03988 0.33552,1.309497 1.2748,7.427161 0.6313,4.11174 1.19705,7.78712 1.25721,8.16752 l 0.10939,0.69163 h -5.74379 c -3.15909,0 -5.7438,-0.0317 -5.7438,-0.0704 z"
         id="path7186" />
    </g>
  </g>
</svg>
